<svg width="20" height="20" viewBox="0 0 20 20" fill="none" xmlns="http://www.w3.org/2000/svg">
<path d="M3.79437 17.6248C3.41104 17.6248 3.07868 17.484 2.79729 17.2025C2.51576 16.9211 2.375 16.5887 2.375 16.2054V3.79498C2.375 3.41026 2.51576 3.07672 2.79729 2.79435C3.07868 2.51185 3.41104 2.37061 3.79437 2.37061H16.2048C16.5895 2.37061 16.9231 2.51185 17.2054 2.79435C17.4879 3.07672 17.6292 3.41026 17.6292 3.79498V16.2054C17.6292 16.5887 17.4879 16.9211 17.2054 17.2025C16.9231 17.484 16.5895 17.6248 16.2048 17.6248H3.79437ZM3.79437 13.9585V16.2054H16.2048V8.9281L11.5485 13.5696C11.4069 13.7144 11.2411 13.7877 11.0513 13.7894C10.8613 13.791 10.6955 13.7194 10.554 13.5746L7.36375 10.3891L3.79437 13.9585ZM3.79437 12.1079L6.86646 9.04102C7.00951 8.89936 7.17646 8.82852 7.36729 8.82852C7.55813 8.82852 7.72438 8.89936 7.86604 9.04102L11.0513 12.2262L16.2048 7.07269V3.79498H3.79437V12.1079ZM3.79437 8.9281V7.07269V12.2262V8.53873V13.9585V10.3891V14.0766V8.9281ZM3.79437 12.1079V3.79498V12.2262V8.53873V12.1079ZM3.79437 13.9585V10.3891V14.0766V8.9281V16.2054V13.9585Z" fill="white"/>
</svg>
