<svg width="20" height="20" viewBox="0 0 20 20" fill="none" xmlns="http://www.w3.org/2000/svg">
<path d="M10.0044 18.5925C8.39179 18.5925 7.07415 18.3549 6.05151 17.8796C5.02887 17.4045 4.51755 16.7952 4.51755 16.0517C4.51755 15.7053 4.63269 15.3836 4.86297 15.0867C5.09325 14.7897 5.4363 14.5255 5.89214 14.294C6.06491 14.2179 6.24109 14.2081 6.42068 14.2648C6.6004 14.3213 6.72825 14.4368 6.80422 14.6113C6.88033 14.7856 6.89095 14.9626 6.83609 15.1423C6.78109 15.3219 6.66727 15.4497 6.49464 15.5259C6.38019 15.6092 6.27519 15.696 6.17964 15.7863C6.08408 15.8766 5.99464 15.9634 5.9113 16.0467C6.16116 16.3471 6.69151 16.6091 7.50234 16.8327C8.31332 17.0563 9.147 17.1682 10.0034 17.1682C10.8598 17.1682 11.6933 17.0563 12.504 16.8327C13.3147 16.6091 13.8452 16.3471 14.0955 16.0467C14.0121 15.9634 13.9227 15.8766 13.8271 15.7863C13.7316 15.696 13.6266 15.6092 13.5121 15.5259C13.3395 15.4497 13.2257 15.3219 13.1707 15.1423C13.1158 14.9626 13.1264 14.7847 13.2023 14.6088C13.2751 14.436 13.4014 14.3213 13.5811 14.2648C13.7607 14.2081 13.9385 14.2179 14.1146 14.294C14.5671 14.5255 14.9094 14.7897 15.1413 15.0867C15.3732 15.3836 15.4892 15.7053 15.4892 16.0517C15.4892 16.7952 14.9782 17.4045 13.9563 17.8796C12.9344 18.3549 11.6171 18.5925 10.0044 18.5925ZM10.0317 14.1861C11.5289 13.0811 12.6553 11.9569 13.4109 10.8136C14.1666 9.67037 14.5444 8.60016 14.5444 7.60294C14.5444 6.07016 14.0562 4.91343 13.0798 4.13273C12.1035 3.3519 11.0789 2.96148 10.0061 2.96148C8.94318 2.96148 7.92012 3.35176 6.93693 4.13232C5.95387 4.91301 5.46234 6.07023 5.46234 7.60398C5.46234 8.60537 5.84096 9.64968 6.59818 10.7369C7.35554 11.8241 8.50005 12.9738 10.0317 14.1861ZM10.0059 15.6313C9.86422 15.6313 9.72262 15.608 9.58109 15.5615C9.43943 15.5148 9.30804 15.4448 9.18693 15.3515C7.4654 13.9943 6.17769 12.6729 5.3238 11.3875C4.46991 10.1021 4.04297 8.84128 4.04297 7.60503C4.04297 6.60572 4.22436 5.72753 4.58714 4.97044C4.94991 4.21336 5.41811 3.5801 5.99172 3.07065C6.56533 2.56107 7.20429 2.17808 7.90859 1.92169C8.6129 1.6653 9.31165 1.53711 10.0048 1.53711C10.698 1.53711 11.4001 1.6653 12.1109 1.92169C12.8217 2.17808 13.4603 2.56107 14.0267 3.07065C14.593 3.5801 15.0573 4.21336 15.4198 4.97044C15.7825 5.72753 15.9638 6.60572 15.9638 7.60503C15.9638 8.83919 15.5369 10.0979 14.683 11.3811C13.8291 12.6641 12.536 13.9859 10.8038 15.3465C10.6805 15.4415 10.5524 15.5127 10.4196 15.5602C10.2869 15.6076 10.1489 15.6313 10.0059 15.6313ZM10.0048 9.18169C10.4739 9.18169 10.8748 9.01509 11.2078 8.6819C11.5408 8.34857 11.7073 7.94794 11.7073 7.48003C11.7073 7.01183 11.5407 6.61121 11.2073 6.27815C10.874 5.94509 10.4732 5.77857 10.0051 5.77857C9.53547 5.77857 9.1338 5.94509 8.80005 6.27815C8.4663 6.61121 8.29943 7.01183 8.29943 7.48003C8.29943 7.94836 8.46637 8.34905 8.80026 8.68211C9.13429 9.01516 9.53582 9.18169 10.0048 9.18169Z" fill="white"/>
</svg>
