<svg width="32" height="32" viewBox="0 0 32 32" fill="none" xmlns="http://www.w3.org/2000/svg">
<path d="M24.7156 30.8027C24.1663 30.8027 23.6183 30.7583 23.0716 30.6694C22.5252 30.5805 21.9964 30.4556 21.4853 30.2947L3.20394 23.6534C3.0155 23.5814 2.87839 23.4554 2.79261 23.2754C2.70683 23.0954 2.69994 22.9112 2.77194 22.7227C2.84394 22.5345 2.96861 22.3975 3.14594 22.3117C3.32327 22.2259 3.50883 22.2191 3.70261 22.2911L12.6626 25.5417L14.9563 19.6917L9.71194 14.2301C9.15839 13.6205 8.93183 12.9237 9.03227 12.1397C9.13272 11.3559 9.52905 10.7566 10.2213 10.3417L15.3719 7.34172C15.6991 7.15861 16.0484 7.05617 16.4199 7.03439C16.7915 7.01261 17.1381 7.05461 17.4596 7.16039C17.7814 7.26106 18.0741 7.43228 18.3376 7.67406C18.6012 7.91584 18.7885 8.20606 18.8996 8.54472L19.3489 10.0177C19.7161 11.2017 20.2594 12.1498 20.9789 12.8621C21.6985 13.5741 22.5752 14.0998 23.6089 14.4394L24.1009 12.9301C24.1561 12.7469 24.2681 12.6125 24.4369 12.5267C24.6058 12.4409 24.7818 12.4229 24.9649 12.4727C25.1532 12.5225 25.2931 12.6361 25.3846 12.8134C25.4762 12.9907 25.4971 13.1736 25.4473 13.3621L24.2996 16.8894C22.7514 16.5678 21.4225 15.9878 20.3129 15.1494C19.2036 14.3109 18.3356 13.1601 17.7089 11.6967L13.4366 14.1424L17.0903 18.4294C17.2225 18.5841 17.3122 18.7704 17.3593 18.9884C17.4064 19.2066 17.3887 19.4152 17.3063 19.6141L14.7046 26.2801L19.2959 27.9417L22.4293 18.2881C22.6568 18.3601 22.8786 18.4252 23.0946 18.4834C23.3106 18.5416 23.5265 18.5929 23.7423 18.6374L20.6169 28.4404L21.9836 28.9147C22.4005 29.0703 22.8352 29.1869 23.2876 29.2647C23.7401 29.3425 24.2161 29.3814 24.7156 29.3814C25.2436 29.3814 25.7547 29.3425 26.2489 29.2647C26.7432 29.1869 27.2263 29.0592 27.6983 28.8814C27.8918 28.8147 28.0815 28.8118 28.2673 28.8727C28.4531 28.9336 28.5708 29.0583 28.6206 29.2467C28.6926 29.4574 28.6759 29.6569 28.5706 29.8454C28.4653 30.0338 28.3073 30.1614 28.0966 30.2281C27.5475 30.4112 26.9912 30.5527 26.4276 30.6527C25.8641 30.7527 25.2934 30.8027 24.7156 30.8027ZM22.4656 8.20039C21.7723 8.20039 21.1788 7.95217 20.6853 7.45572C20.1915 6.9595 19.9446 6.36739 19.9446 5.67939C19.9446 4.98606 20.1915 4.39128 20.6853 3.89506C21.1788 3.39861 21.7723 3.15039 22.4656 3.15039C23.1534 3.15039 23.7455 3.39861 24.2419 3.89506C24.7384 4.39128 24.9866 4.98606 24.9866 5.67939C24.9866 6.36739 24.7384 6.9595 24.2419 7.45572C23.7455 7.95217 23.1534 8.20039 22.4656 8.20039Z" fill="#BDA66E"/>
</svg>
